<?xml version="1.0" standalone="no"?>
<!DOCTYPE svg PUBLIC "-//W3C//DTD SVG 20010904//EN"
 "http://www.w3.org/TR/2001/REC-SVG-20010904/DTD/svg10.dtd">
<svg version="1.0" xmlns="http://www.w3.org/2000/svg"
 width="300.000000pt" height="300.000000pt" viewBox="0 0 300.000000 300.000000"
 preserveAspectRatio="xMidYMid meet">
<metadata>
Created by potrace 1.10, written by Peter Selinger 2001-2011
</metadata>
<g transform="translate(0.000000,300.000000) scale(0.100000,-0.100000)"
fill="#000000" stroke="none">
<path d="M1350 2276 c-11 -14 -10 -26 6 -79 12 -39 19 -92 19 -142 0 -71 -4
-86 -33 -140 -35 -66 -117 -175 -131 -175 -4 0 -14 24 -22 53 -12 44 -18 52
-40 55 -21 2 -37 -8 -78 -55 -122 -136 -170 -335 -126 -521 46 -194 200 -347
395 -393 75 -17 221 -15 304 5 370 89 543 500 330 789 -29 40 -40 48 -62 45
-23 -3 -28 -10 -42 -63 -26 -97 -59 -145 -100 -145 -24 0 -30 49 -15 128 45
250 14 374 -129 510 -103 97 -246 163 -276 128z m145 -122 c168 -111 227 -253
191 -459 -22 -126 -21 -175 7 -216 26 -38 62 -55 100 -45 39 9 95 63 121 115
l24 46 16 -40 c30 -72 39 -125 33 -203 -17 -221 -208 -390 -464 -409 -334 -24
-566 228 -509 555 14 80 76 220 102 229 5 2 18 -13 27 -32 23 -48 58 -63 91
-41 43 27 143 157 183 234 33 66 37 80 37 155 0 45 -3 94 -7 110 -9 34 -2 34
48 1z"/>
</g>
</svg>
